<svg version="1.1" id="Layer_1" xmlns="http://www.w3.org/2000/svg" xmlns:xlink="http://www.w3.org/1999/xlink" x="0px" y="0px"
	 width="100%" viewBox="0 0 496 496" enable-background="new 0 0 496 496" xml:space="preserve">
<path fill="#000000" opacity="1.000000" stroke="none" 
	d="
M307.192291,194.752502 
	C320.901062,203.651215 334.308319,212.353302 347.677582,221.113419 
	C349.237976,222.135849 351.985657,223.103607 350.614258,225.488632 
	C349.062469,228.187454 346.764618,226.259659 345.038971,225.138901 
	C322.701782,210.631332 300.386353,196.090286 278.090881,181.518692 
	C270.215332,176.371521 266.732452,176.940659 259.521576,185.120438 
	C268.598755,191.034103 277.598358,196.946274 286.648529,202.780014 
	C296.444641,209.094559 306.288940,215.334259 316.108734,221.612091 
	C316.949554,222.149643 317.791138,222.692810 318.584167,223.296677 
	C319.700684,224.146912 320.716400,225.206268 319.711823,226.639603 
	C318.786438,227.959961 317.334747,227.708511 316.106628,227.054474 
	C314.641266,226.274109 313.273651,225.308975 311.870483,224.413193 
	C287.596527,208.916473 263.278290,193.488159 239.103577,177.838120 
	C235.800232,175.699631 233.644394,176.884766 231.020676,178.568680 
	C206.782974,194.124695 182.535172,209.665222 158.231277,225.117432 
	C156.219803,226.396332 153.481750,229.643707 151.480896,226.387909 
	C149.724609,223.530045 153.737991,222.516159 155.583115,221.261169 
	C161.638397,217.142548 167.743027,213.059158 174.095520,209.429138 
	C177.801834,207.311218 179.128342,204.683060 178.874924,200.550949 
	C178.579895,195.740051 178.904617,190.894455 178.806396,186.067062 
	C178.737381,182.674881 180.382645,181.191910 183.608582,181.120209 
	C183.774887,181.116516 183.941208,181.086990 184.107010,181.090958 
	C188.095413,181.186447 192.252045,180.606583 196.031921,181.544556 
	C201.457474,182.890900 197.362061,188.730515 199.864441,191.796310 
	C202.080902,192.014755 203.546951,190.481323 205.178513,189.442230 
	C214.025757,183.807663 222.887894,178.193680 231.636459,172.408646 
	C234.365509,170.604034 236.665298,170.386322 239.370316,172.363922 
	C242.051819,174.324341 245.269547,175.624329 247.722443,177.808731 
	C252.357910,181.936768 256.481262,181.330673 260.718201,177.439575 
	C267.294220,171.400284 273.328491,171.218811 280.687134,177.184708 
	C288.790680,183.754517 298.097046,188.840698 307.192291,194.752502 
M193.393112,187.241547 
	C190.053299,185.850861 185.876053,183.836151 184.372253,188.602524 
	C183.107773,192.610397 183.517242,197.306778 184.518982,201.711288 
	C193.423370,198.782028 194.599060,196.991974 193.393112,187.241547 
z"/>
<path fill="#000000" opacity="1.000000" stroke="none" 
	d="
M235.893799,271.237732 
	C235.943588,261.933075 235.956314,252.947250 235.987869,243.961472 
	C235.992538,242.632187 236.014481,241.295410 236.158157,239.976227 
	C236.311417,238.569214 236.831085,237.222824 238.562302,237.426727 
	C239.987701,237.594620 240.245438,238.873306 240.250977,240.093124 
	C240.275177,245.417984 240.275574,250.742966 240.277496,256.067902 
	C240.280670,264.832733 240.278351,273.597534 240.278351,282.362366 
	C239.670685,282.690277 239.063034,283.018219 238.455368,283.346130 
	C228.145599,271.275757 217.835815,259.205383 207.387390,246.972641 
	C205.604889,248.552887 206.258896,250.301682 206.246262,251.792664 
	C206.171463,260.611664 206.230347,269.431793 206.167084,278.250977 
	C206.155945,279.804901 206.523209,281.964844 204.022125,281.956482 
	C201.981339,281.949707 201.889297,280.117249 201.886810,278.634857 
	C201.864944,265.655945 201.889145,252.676926 201.924240,239.697998 
	C201.926971,238.691742 202.172821,237.716461 203.506516,237.083481 
	C206.987885,238.969437 209.077286,242.451981 211.634933,245.398483 
	C218.614456,253.439117 225.421539,261.629578 232.418350,269.654816 
	C233.208496,270.561127 233.612686,272.985840 235.893799,271.237732 
z"/>
<path fill="#000000" opacity="1.000000" stroke="none" 
	d="
M185.539215,273.335815 
	C178.809082,282.221832 168.457718,285.577179 158.796234,281.984131 
	C147.314804,277.714294 143.852829,268.617249 143.974121,258.912720 
	C144.112610,247.833649 150.711441,239.571243 160.628189,237.288696 
	C169.235565,235.307526 177.388199,236.730026 183.412750,243.717697 
	C189.651047,250.953262 190.836349,259.459747 187.829132,268.502960 
	C187.308563,270.068451 186.450287,271.521576 185.539215,273.335815 
M155.551544,243.987717 
	C154.182571,245.426453 152.539566,246.690552 151.492096,248.334183 
	C146.988846,255.400284 146.891098,262.829437 150.722855,270.126740 
	C154.143326,276.640717 160.140274,279.576538 167.225418,279.432434 
	C175.428589,279.265594 181.978058,273.835327 184.251282,266.302307 
	C186.769455,257.957672 184.272690,249.127289 178.004105,244.207748 
	C171.695206,239.256516 163.901062,239.023483 155.551544,243.987717 
z"/>
<path fill="#000000" opacity="1.000000" stroke="none" 
	d="
M123.610161,241.195831 
	C132.042191,248.389801 134.785263,258.529877 131.231781,268.455933 
	C128.014267,277.443481 120.322258,282.307251 109.255135,282.334167 
	C104.927399,282.344696 100.598961,282.278503 96.272072,282.337677 
	C93.758430,282.372009 92.666107,281.283264 92.674446,278.750336 
	C92.716133,266.099945 92.699722,253.449295 92.678482,240.798782 
	C92.674995,238.724319 93.239754,237.036407 95.616859,237.021652 
	C105.036667,236.963196 114.656830,235.619278 123.610161,241.195831 
M96.483849,276.777527 
	C97.170929,278.913269 98.994331,278.643127 100.617790,278.664948 
	C103.944481,278.709747 107.274796,278.759918 110.599060,278.658417 
	C120.890198,278.344238 128.629150,270.263519 128.656738,259.884918 
	C128.685043,249.238907 121.382660,241.573624 110.768814,241.182693 
	C107.778038,241.072556 104.768425,241.308365 101.789276,241.089035 
	C97.765678,240.792801 96.156029,242.233871 96.268623,246.471100 
	C96.529282,256.279907 96.368561,266.099915 96.483849,276.777527 
z"/>
<path fill="#000000" opacity="1.000000" stroke="none" 
	d="
M445.396057,278.580322 
	C444.146912,274.129517 441.421814,273.001740 437.363037,273.241974 
	C432.055603,273.556152 426.701538,273.549866 421.393646,273.237457 
	C417.314270,272.997345 414.790802,274.287994 413.428314,278.243561 
	C412.670868,280.442596 411.807404,283.281555 407.479919,281.253540 
	C414.463470,266.356171 421.389496,251.581497 428.315552,236.806839 
	C428.943665,236.738617 429.571777,236.670395 430.199890,236.602173 
	C437.172974,251.455826 444.146057,266.309479 451.158783,281.247589 
	C447.545380,283.270142 446.515350,281.176880 445.396057,278.580322 
M435.414551,257.001068 
	C433.369324,253.097122 432.146301,248.761444 429.047516,244.462173 
	C425.122437,253.039642 421.477722,261.004517 417.727753,269.199341 
	C425.828400,269.199341 432.990936,269.199341 440.434143,269.199341 
	C439.524506,264.657349 437.259674,261.319763 435.414551,257.001068 
z"/>
<path fill="#000000" opacity="1.000000" stroke="none" 
	d="
M252.153931,277.124451 
	C258.568939,263.465210 264.810059,250.128387 271.051147,236.791580 
	C271.683044,236.749252 272.314911,236.706924 272.946777,236.664597 
	C279.933929,251.525269 286.921112,266.385956 293.953613,281.342987 
	C290.015289,283.253479 288.951538,280.831970 288.254395,278.687073 
	C286.831604,274.309387 284.072662,272.884247 279.564636,273.219940 
	C274.429047,273.602417 269.230469,273.527588 264.082825,273.236084 
	C260.045044,273.007385 257.415680,274.097748 256.187622,278.234558 
	C255.557953,280.355713 254.728058,282.949280 251.366104,281.995850 
	C249.959717,280.271515 251.540909,278.930328 252.153931,277.124451 
M274.197540,248.413147 
	C273.427521,247.308105 273.642487,245.413208 271.412231,245.158142 
	C267.833130,253.064011 264.252228,260.973816 260.546570,269.159180 
	C268.594147,269.159180 275.853333,269.159180 283.750671,269.159180 
	C280.442230,261.964966 277.472565,255.507355 274.197540,248.413147 
z"/>
<path fill="#000000" opacity="1.000000" stroke="none" 
	d="
M394.409363,267.888428 
	C391.398438,263.146179 386.532898,262.643524 382.093781,261.489319 
	C378.710571,260.609680 375.265472,259.950165 372.163330,258.299377 
	C364.558746,254.252670 363.848022,244.988586 370.687164,239.813187 
	C375.850372,235.906036 389.880768,235.492401 395.097565,239.101898 
	C396.282501,239.921753 397.104340,240.886765 396.025513,242.738174 
	C393.136932,243.152313 390.557007,241.281799 387.711182,240.827209 
	C383.717438,240.189255 379.789948,239.825150 375.942383,241.400787 
	C372.816895,242.680710 370.547729,244.727448 370.344330,248.349625 
	C370.130341,252.159958 372.514771,254.219559 375.681915,255.304581 
	C381.015015,257.131592 386.522705,258.460052 391.820709,260.375153 
	C396.415314,262.036041 399.334320,265.440521 399.215240,270.552338 
	C399.096649,275.640350 396.587952,279.371735 391.795197,281.404877 
	C389.174286,282.516724 386.479523,283.237854 383.600922,283.307129 
	C378.191162,283.437286 373.051178,282.185486 368.025360,280.370544 
	C366.173004,279.701630 364.043182,279.045380 365.345154,275.655701 
	C369.681793,276.831421 374.051788,278.045563 378.438599,279.195587 
	C381.582245,280.019775 384.682648,279.778503 387.760406,278.727142 
	C393.238098,276.855896 394.927032,274.293518 394.409363,267.888428 
z"/>
<path fill="#000000" opacity="1.000000" stroke="none" 
	d="
M303.802673,251.010620 
	C303.802948,247.849396 303.676483,245.177322 303.846161,242.524185 
	C303.970306,240.583023 302.880096,237.360641 306.135498,237.499268 
	C309.223175,237.630737 308.174561,240.814651 308.194611,242.765350 
	C308.295502,252.587677 308.480316,262.420074 308.136292,272.231415 
	C307.963959,277.146698 309.238556,279.179230 314.488159,278.791962 
	C320.449219,278.352203 326.468781,278.661774 332.461884,278.732300 
	C333.862488,278.748749 335.929657,278.450592 335.864960,280.609833 
	C335.800446,282.761383 333.720490,282.292572 332.347107,282.302521 
	C324.355652,282.360474 316.361450,282.219757 308.372681,282.376892 
	C304.742126,282.448273 303.794800,280.686401 303.818878,277.481262 
	C303.883881,268.824005 303.817230,260.165771 303.802673,251.010620 
z"/>
<path fill="#000000" opacity="1.000000" stroke="none" 
	d="
M348.583862,267.959900 
	C348.560669,258.655090 348.524231,249.843887 348.529968,241.032730 
	C348.530884,239.611465 348.043304,237.574051 350.107788,237.401764 
	C352.604492,237.193390 352.287750,239.426239 352.291840,241.009659 
	C352.324036,253.479279 352.325562,265.949127 352.273407,278.418640 
	C352.266968,279.957703 352.678162,282.210815 350.095551,281.997437 
	C347.952545,281.820435 348.506439,279.848724 348.506256,278.428101 
	C348.505798,275.103241 348.555328,271.778381 348.583862,267.959900 
z"/>
</svg>