<svg version="1.1" id="Layer_1" xmlns="http://www.w3.org/2000/svg" xmlns:xlink="http://www.w3.org/1999/xlink" x="0px" y="0px"
	 width="100%" viewBox="0 0 496 496" enable-background="new 0 0 496 496" xml:space="preserve">
<path fill="#ffffff" opacity="1.000000" stroke="none" 
	d="
M207.947052,186.899963 
	C215.550949,182.040558 222.947632,177.517822 230.115433,172.657532 
	C233.391235,170.436325 236.062454,170.486572 239.183014,172.783325 
	C242.261749,175.049286 245.852722,176.653488 248.787552,179.071625 
	C252.031479,181.744446 254.393845,180.932739 257.569611,178.853287 
	C272.579529,169.025024 267.928650,169.822937 281.612335,178.632065 
	C303.181396,192.517502 324.598572,206.638885 346.070679,220.674713 
	C347.178162,221.398651 348.264954,222.183792 349.237183,223.075790 
	C350.018646,223.792786 350.323456,224.789948 349.621155,225.765320 
	C348.997955,226.630798 348.086151,227.165405 347.032806,226.766983 
	C345.957367,226.360168 344.925171,225.785202 343.957336,225.155746 
	C321.614105,210.623901 299.135529,196.291733 277.053497,181.372696 
	C271.671722,177.736679 267.553467,176.831207 262.669678,181.263992 
	C261.474731,182.348602 259.993744,183.118118 258.158447,184.361725 
	C263.007324,188.949982 268.547089,191.627853 273.577911,194.951096 
	C287.339325,204.041443 301.292084,212.841614 315.114014,221.841263 
	C316.849274,222.971100 320.526276,223.743332 318.567291,226.671265 
	C316.915039,229.140839 314.319885,226.912003 312.433441,225.705688 
	C288.292664,210.268707 264.107513,194.898544 240.128845,179.213043 
	C235.994812,176.508774 233.185699,176.525345 229.059433,179.220261 
	C205.208023,194.797867 181.144577,210.050812 157.150314,225.409607 
	C156.308746,225.948288 155.479858,226.533783 154.574280,226.939423 
	C153.021912,227.634781 151.210495,228.343369 150.223999,226.329803 
	C149.373566,224.593933 150.930054,223.562103 152.161682,222.757401 
	C159.414078,218.019104 166.644226,213.241058 174.017212,208.695969 
	C176.739319,207.017929 177.963486,205.062454 177.822067,201.818436 
	C177.597321,196.662170 177.880295,191.485458 177.732117,186.323593 
	C177.627640,182.684555 179.331909,181.122940 182.781509,181.066208 
	C183.614517,181.052505 184.447357,181.026794 185.280396,181.015701 
	C196.580353,180.865311 196.580353,180.865707 198.626480,191.804810 
	C202.378525,191.649536 204.659790,188.656113 207.947052,186.899963 
M183.102463,188.959396 
	C183.158539,193.192627 182.532028,197.466690 183.650742,202.058762 
	C186.794785,200.887375 189.239975,199.208344 191.469681,197.302994 
	C193.306854,195.733078 193.827850,188.028656 192.038895,187.093765 
	C189.117493,185.567062 185.814240,184.622757 183.102463,188.959396 
z"/>
<path fill="#ffffff" opacity="1.000000" stroke="none" 
	d="
M314.999939,304.259369 
	C260.179626,304.156311 205.859268,304.055939 151.539093,303.901184 
	C151.050903,303.899780 150.564758,303.170105 150.037903,302.748657 
	C153.270111,300.125031 349.181061,299.696259 353.926697,302.271698 
	C353.034729,304.869293 350.774292,304.202240 348.997925,304.212921 
	C337.832245,304.280090 326.666016,304.254150 314.999939,304.259369 
z"/>
<path fill="#ffffff" opacity="1.000000" stroke="none" 
	d="
M240.290680,248.037796 
	C240.290253,259.880493 240.290253,271.229248 240.290253,282.578033 
	C239.621536,282.818787 238.952805,283.059540 238.284088,283.300293 
	C228.035614,271.262756 217.787140,259.225250 207.382416,247.004181 
	C205.629684,248.586716 206.281982,250.329575 206.268112,251.811157 
	C206.183914,260.794159 206.224854,269.778290 206.171295,278.761688 
	C206.162537,280.230164 206.196823,281.996918 204.021317,281.986603 
	C202.258255,281.978241 201.887726,280.527710 201.888107,279.170990 
	C201.892044,265.700165 201.941147,252.229279 202.033646,238.758789 
	C202.037460,238.200729 202.595215,237.646469 203.510178,235.948837 
	C214.218567,248.439178 224.510971,260.444305 234.803375,272.449432 
	C235.193848,272.409515 235.584335,272.369598 235.974808,272.329712 
	C235.974808,269.321899 235.977020,266.314117 235.974350,263.306335 
	C235.968292,256.485321 235.891449,249.663284 235.994873,242.843964 
	C236.025070,240.852524 235.175629,237.667496 238.094498,237.530380 
	C241.440445,237.373215 240.010284,240.672852 240.255707,242.558807 
	C240.468536,244.194336 240.294281,245.880249 240.290680,248.037796 
z"/>
<path fill="#ffffff" opacity="1.000000" stroke="none" 
	d="
M143.936340,261.712311 
	C144.086609,243.235977 157.812790,232.455307 173.983795,237.632812 
	C184.661163,241.051407 190.899750,251.800323 189.148071,263.760529 
	C187.486893,275.102875 178.618988,283.047089 167.335983,283.300598 
	C155.390869,283.568970 146.778915,276.494690 144.535568,264.578461 
	C144.381729,263.761230 144.181290,262.952820 143.936340,261.712311 
M183.698471,251.924484 
	C178.679733,242.110489 170.069138,238.137192 160.709366,241.316406 
	C151.644775,244.395355 146.483902,254.111176 148.477692,264.343567 
	C150.487625,274.658783 160.167389,281.023865 170.466019,278.802368 
	C181.974030,276.319977 187.336517,265.928955 183.698471,251.924484 
z"/>
<path fill="#ffffff" opacity="1.000000" stroke="none" 
	d="
M129.917114,248.392181 
	C136.284042,263.352448 130.626572,277.802399 116.965782,281.497833 
	C109.819298,283.430969 102.401100,282.154602 95.103828,282.199371 
	C93.128944,282.211487 92.716911,280.686798 92.715874,279.068695 
	C92.707550,266.079926 92.715584,253.091171 92.723793,240.102402 
	C92.724884,238.375031 93.478249,237.092682 95.291809,237.049347 
	C103.744461,236.847412 112.285789,235.935638 120.383949,239.408325 
	C124.500847,241.173752 127.629036,244.076569 129.917114,248.392181 
M127.128990,267.441528 
	C131.909164,252.077438 124.047180,241.250610 108.018486,241.133438 
	C105.855995,241.117630 103.682434,241.282196 101.532913,241.117081 
	C97.722130,240.824402 96.136833,242.255615 96.284554,246.257767 
	C96.535980,253.069138 96.355118,259.896637 96.347916,266.717346 
	C96.335220,278.746674 96.332817,278.683685 108.517189,278.706390 
	C116.719215,278.721649 123.017662,275.649445 127.128990,267.441528 
z"/>
<path fill="#ffffff" opacity="1.000000" stroke="none" 
	d="
M282.138916,255.944244 
	C286.134613,264.540009 289.976746,272.793640 293.897949,281.217133 
	C290.602203,283.237976 289.135590,281.421692 288.454956,279.118195 
	C286.926544,273.945435 283.428162,272.870636 278.548584,273.234863 
	C273.755157,273.592651 268.900360,273.536835 264.098175,273.242798 
	C260.049530,272.994904 257.479584,274.155731 256.262390,278.274139 
	C255.589966,280.549225 254.522568,283.148651 250.082153,281.463226 
	C257.136902,266.402313 264.082825,251.573761 271.622620,235.477341 
	C276.593048,242.572968 278.666718,249.427872 282.138916,255.944244 
M262.774963,269.678040 
	C269.483551,269.678040 276.192139,269.678040 283.638458,269.678040 
	C280.050568,260.575165 276.319031,252.766266 271.961182,244.173691 
	C268.190338,252.366684 264.801025,259.691040 261.461395,267.037994 
	C261.052094,267.938416 260.822693,268.981445 262.774963,269.678040 
z"/>
<path fill="#ffffff" opacity="1.000000" stroke="none" 
	d="
M410.509125,274.616211 
	C416.590454,261.723145 422.510834,249.171539 428.431244,236.619949 
	C429.032837,236.625443 429.634460,236.630920 430.236053,236.636414 
	C437.212708,251.518768 444.189362,266.401123 451.223633,281.406403 
	C446.878845,283.292236 445.936523,280.504211 445.235565,278.256683 
	C443.964905,274.182343 441.417786,273.007935 437.348907,273.245178 
	C432.036469,273.554901 426.676361,273.568085 421.366486,273.234985 
	C417.228973,272.975403 414.805023,274.423737 413.423950,278.311127 
	C412.640564,280.516052 411.793732,283.407227 408.212311,281.556335 
	C407.910767,278.964172 409.555756,277.097595 410.509125,274.616211 
M432.527618,250.975983 
	C431.425720,249.086716 431.244507,246.614716 428.890167,244.888275 
	C425.083099,253.159271 421.463440,261.023071 417.657379,269.291931 
	C425.673706,269.291931 432.828369,269.291931 440.640198,269.291931 
	C438.594391,262.707245 435.331238,257.337280 432.527618,250.975983 
z"/>
<path fill="#ffffff" opacity="1.000000" stroke="none" 
	d="
M397.588318,264.761719 
	C401.413086,274.266663 396.925262,281.472290 386.351685,283.084961 
	C379.585388,284.116943 373.148224,282.310028 366.860596,279.990509 
	C365.386139,279.446564 363.988525,278.527191 364.808105,276.659607 
	C365.561340,274.943298 367.118347,275.603912 368.263458,276.138855 
	C371.612701,277.703491 375.139648,278.576782 378.738556,279.285156 
	C380.892456,279.709106 383.040863,279.830292 385.182587,279.431946 
	C391.088623,278.333496 394.628784,275.147217 394.762543,270.870850 
	C394.944489,265.053162 390.280151,264.020782 386.276428,262.619202 
	C382.682495,261.361084 378.853302,260.784668 375.234589,259.585602 
	C368.753906,257.438232 365.568726,253.378113 365.915039,248.178329 
	C366.258698,243.017731 370.579987,238.174469 376.587921,237.089050 
	C382.357300,236.046722 388.188690,236.227417 393.760498,238.520111 
	C395.484802,239.229660 397.304352,239.876419 396.232483,242.704681 
	C393.223480,243.318069 390.655579,241.344193 387.828400,240.872818 
	C382.958221,240.060791 378.213104,239.652267 373.879272,242.585342 
	C368.870972,245.974884 369.112305,251.594208 374.328491,254.635559 
	C378.289825,256.945221 382.840302,257.395355 387.126129,258.676636 
	C390.984283,259.830078 394.778687,261.049347 397.588318,264.761719 
z"/>
<path fill="#ffffff" opacity="1.000000" stroke="none" 
	d="
M303.805969,272.944397 
	C303.800964,262.152771 303.775146,251.853989 303.821320,241.555527 
	C303.829041,239.828461 303.391937,237.362091 306.053131,237.387589 
	C308.705261,237.412979 308.219360,239.884048 308.226959,241.603043 
	C308.272522,251.901520 308.449951,262.206360 308.147614,272.496277 
	C308.010529,277.161835 309.259064,279.117126 314.225952,278.778168 
	C320.012909,278.383270 325.848083,278.629181 331.660522,278.716339 
	C333.306702,278.740997 335.490814,278.085052 335.981171,280.831726 
	C334.906097,283.035645 332.845703,282.279327 331.185883,282.306030 
	C325.041412,282.404938 318.894501,282.363678 312.748535,282.353485 
	C303.830383,282.338654 303.830383,282.330658 303.805969,272.944397 
z"/>
<path fill="#ffffff" opacity="1.000000" stroke="none" 
	d="
M352.321960,247.054108 
	C352.314575,257.705292 352.340240,267.866302 352.267090,278.026611 
	C352.256226,279.535065 352.865234,281.892517 350.421936,281.941376 
	C347.711304,281.995636 348.158752,279.501282 348.150696,277.797943 
	C348.094025,265.823547 348.094116,253.848618 348.160400,241.874313 
	C348.169861,240.163925 347.708679,237.597733 350.171295,237.438232 
	C352.976990,237.256516 352.143829,239.920303 352.285950,241.569260 
	C352.428497,243.222870 352.320984,244.898010 352.321960,247.054108 
z"/>
<path fill="#ffffff" opacity="1.000000" stroke="none" 
	d="
M299.715149,322.859802 
	C303.796631,326.070007 304.074432,329.706696 300.631165,330.963074 
	C298.277313,331.821899 295.783936,331.579742 295.031342,328.713135 
	C294.137665,325.309235 295.204620,322.826294 299.715149,322.859802 
z"/>
<path fill="#ffffff" opacity="1.000000" stroke="none" 
	d="
M311.065369,323.173035 
	C311.838104,323.981567 312.275787,324.664948 312.772186,325.439972 
	C314.105164,324.987549 314.264893,321.615143 316.266479,323.333862 
	C318.380829,325.149384 317.177704,327.905579 317.069489,330.437103 
	C314.386993,331.156311 311.875275,331.501068 308.995605,330.539215 
	C309.274353,327.958435 306.741302,324.890045 311.065369,323.173035 
z"/>
<path fill="#ffffff" opacity="1.000000" stroke="none" 
	d="
M213.323563,326.206757 
	C213.208786,328.025787 213.749954,329.554352 212.547455,331.153198 
	C210.751205,330.698700 208.768585,330.357635 206.666473,331.078674 
	C205.539337,328.268646 205.290359,325.833557 207.043045,322.404572 
	C207.891815,327.114929 212.942719,320.167572 213.323563,326.206757 
z"/>
<path fill="#ffffff" opacity="1.000000" stroke="none" 
	d="
M237.296249,325.000000 
	C237.373947,327.151855 237.373947,328.945740 237.373947,331.055847 
	C235.305237,331.208008 233.443069,329.377991 231.352905,331.392914 
	C230.748825,328.056488 229.473587,325.139221 232.205948,323.173004 
	C233.811798,322.017456 236.058838,322.382629 237.296249,325.000000 
z"/>
<path fill="#ffffff" opacity="1.000000" stroke="none" 
	d="
M281.880005,327.777649 
	C281.892609,325.933838 281.580048,324.380585 283.156372,323.148071 
	C284.779327,323.439728 286.520172,326.616760 288.235870,322.388641 
	C289.728973,325.652039 289.387817,328.008911 288.672455,332.000824 
	C287.624512,326.157410 282.367676,334.622375 281.880005,327.777649 
z"/>
<path fill="#ffffff" opacity="1.000000" stroke="none" 
	d="
M328.509735,324.706055 
	C328.482635,326.877655 328.482635,328.669037 328.482635,330.631592 
	C326.332977,331.392120 323.977142,332.468933 322.926971,329.865448 
	C322.134094,327.899780 321.798218,325.024506 323.645813,323.412048 
	C324.984863,322.243439 327.314758,321.839996 328.509735,324.706055 
z"/>
<path fill="#ffffff" opacity="1.000000" stroke="none" 
	d="
M197.939056,325.959625 
	C195.352982,327.807587 195.391800,328.132477 197.975723,328.335632 
	C198.447632,328.372742 198.941620,328.065033 199.422913,328.072784 
	C199.678955,328.076904 199.929642,328.415863 200.409561,328.772003 
	C199.782898,332.057007 197.275482,331.791840 195.229935,330.910126 
	C192.443253,329.708954 192.099472,327.145203 193.491028,324.651703 
	C194.745178,322.404541 197.044281,322.018951 199.072235,323.279388 
	C201.101410,324.540680 201.174454,325.912140 197.939056,325.959625 
z"/>
<path fill="#ffffff" opacity="1.000000" stroke="none" 
	d="
M219.381348,330.935760 
	C218.072586,327.560883 219.629486,325.248413 221.792404,322.860016 
	C224.984283,324.633789 225.081497,327.566650 225.589050,330.719452 
	C223.464478,330.847443 221.580780,330.960907 219.381348,330.935760 
z"/>
<path fill="#ffffff" opacity="1.000000" stroke="none" 
	d="
M176.906433,323.155518 
	C179.301468,325.236664 179.483932,327.845825 180.418747,331.040039 
	C177.493790,330.290680 175.326782,330.795868 172.694000,331.024078 
	C173.501175,327.788269 173.767258,324.865356 176.906433,323.155518 
z"/>
<path fill="#ffffff" opacity="1.000000" stroke="none" 
	d="
M264.850281,330.073395 
	C264.183807,327.566193 262.121277,325.878754 262.614258,323.035797 
	C264.665131,323.431946 266.674011,324.023651 269.571991,322.149139 
	C268.102234,325.921204 268.973236,329.369019 264.850281,330.073395 
z"/>
<path fill="#ffffff" opacity="1.000000" stroke="none" 
	d="
M255.267807,328.833771 
	C254.510513,331.456604 253.239288,332.040863 252.787125,329.347260 
	C252.448486,327.329926 251.787338,325.626251 250.538574,323.804688 
	C252.629059,322.052948 254.623245,322.695953 256.631927,323.225555 
	C257.273254,325.369019 254.897675,326.553070 255.267807,328.833771 
z"/>
</svg>