<svg version="1.1" id="Layer_1" xmlns="http://www.w3.org/2000/svg" xmlns:xlink="http://www.w3.org/1999/xlink" x="0px" y="0px"
	 width="100%" viewBox="0 0 500 500" enable-background="new 0 0 500 500" xml:space="preserve">
<path fill="#213644" opacity="1.000000" stroke="none" 
	d="
M256.000000,501.000000 
	C170.666687,501.000000 85.833374,501.000000 1.000046,501.000000 
	C1.000030,334.333405 1.000030,167.666794 1.000015,1.000135 
	C167.666565,1.000090 334.333130,1.000090 500.999756,1.000045 
	C500.999847,167.666519 500.999847,334.333038 500.999939,500.999786 
	C419.500000,501.000000 338.000000,501.000000 256.000000,501.000000 
M194.002701,202.418808 
	C207.315948,193.902298 220.592377,185.326767 234.001999,176.964828 
	C235.277115,176.169708 237.799118,176.011963 239.039948,176.745789 
	C246.908997,181.399536 254.607193,186.345642 262.311462,191.273880 
	C279.967621,202.568039 297.581268,213.928726 315.257385,225.191422 
	C316.834381,226.196213 318.741028,226.683609 320.494568,227.411316 
	C320.888184,226.670166 321.281799,225.929016 321.675415,225.187881 
	C300.811218,211.698212 279.947021,198.208557 258.831543,184.556427 
	C263.513000,181.533173 267.798798,178.765396 271.924438,176.101074 
	C276.957306,179.376740 281.559875,182.362885 286.153015,185.363449 
	C306.345917,198.554916 326.520538,211.774445 346.762817,224.889648 
	C348.077789,225.741638 349.904846,225.803223 351.493713,226.232468 
	C351.888489,225.544556 352.283264,224.856659 352.678040,224.168747 
	C351.596863,223.469833 350.513245,222.774643 349.434875,222.071442 
	C324.492920,205.807404 299.570007,189.513885 274.553192,173.365860 
	C273.357025,172.593765 270.994812,172.471344 269.751495,173.131287 
	C264.651825,175.838303 259.689423,181.434967 254.840149,181.266174 
	C249.662720,181.085953 244.561615,175.764862 239.642502,172.375458 
	C237.241623,170.721176 235.546463,171.216919 233.398148,172.626770 
	C224.775269,178.285675 216.074768,183.826523 207.391357,189.392929 
	C205.077133,190.876434 202.721634,192.295578 199.548233,194.263138 
	C199.548233,190.424759 199.826538,187.605087 199.415939,184.889603 
	C199.243408,183.748566 197.662903,182.006775 196.638489,181.945648 
	C191.545929,181.641785 186.425385,181.806946 180.793884,181.806946 
	C180.793884,189.050949 180.631790,195.679443 180.865707,202.293930 
	C180.974472,205.369507 179.873032,207.146057 177.314148,208.720123 
	C169.947144,213.251816 162.697479,217.977814 155.482849,222.750137 
	C154.245895,223.568359 153.407791,224.989532 152.385437,226.132172 
	C152.884323,226.752747 153.383194,227.373322 153.882080,227.993912 
	C167.062775,219.615143 180.243484,211.236389 194.002701,202.418808 
M187.500092,301.247650 
	C175.015228,301.247650 162.530380,301.247650 150.045517,301.247650 
	C150.060211,301.868439 150.074890,302.489258 150.089584,303.110046 
	C218.027298,303.110046 285.965027,303.110046 353.902740,303.110046 
	C353.905609,302.489288 353.908447,301.868500 353.911316,301.247742 
	C298.774231,301.247742 243.637177,301.247742 187.500092,301.247650 
M205.542953,255.551086 
	C205.542953,252.165985 205.542953,248.780869 205.542953,243.945633 
	C217.250214,257.706177 227.927505,270.256134 238.604797,282.806061 
	C239.766281,268.038208 239.791000,253.661987 239.681320,239.286789 
	C239.676651,238.673660 238.428024,238.070007 236.779572,236.571945 
	C236.779572,250.013779 236.779572,262.039551 236.779572,274.065338 
	C236.438843,274.214203 236.098129,274.363068 235.757401,274.511932 
	C225.049316,261.966614 214.341232,249.421310 203.390671,236.591919 
	C202.964218,237.586258 202.627869,238.005676 202.626755,238.425980 
	C202.590637,252.067047 202.561050,265.708374 202.638000,279.349030 
	C202.642975,280.229584 203.506821,281.105316 203.971146,281.983276 
	C204.494461,280.986938 205.454163,279.998138 205.471451,278.993103 
	C205.600266,271.509125 205.542282,264.021973 205.542953,255.551086 
M144.503693,260.422607 
	C144.580109,261.084473 144.663437,261.745667 144.731888,262.408356 
	C145.939438,274.100769 153.461761,281.649292 164.996857,282.741577 
	C175.291641,283.716400 184.936569,277.106445 187.804047,267.111115 
	C191.055466,255.777451 186.494308,244.066513 176.812286,239.290283 
	C163.157272,232.554169 144.832230,240.336243 144.503693,260.422607 
M93.012909,252.506516 
	C93.012909,262.247437 93.012909,271.988342 93.012909,281.886322 
	C100.044678,281.886322 106.527542,282.285431 112.942734,281.796539 
	C123.636482,280.981598 131.516922,272.398224 132.070648,261.687439 
	C132.682098,249.860443 126.276314,239.950684 115.645645,238.379547 
	C108.364235,237.303421 100.795204,238.173416 93.012909,238.173416 
	C93.012909,242.580429 93.012909,247.045242 93.012909,252.506516 
M443.377991,265.969269 
	C438.851227,256.285675 434.324463,246.602066 429.308411,235.871780 
	C421.844635,251.812408 414.886047,266.674103 407.927460,281.535797 
	C408.505890,281.898529 409.084290,282.261261 409.662720,282.623962 
	C410.908020,280.761749 412.507629,279.040070 413.315002,277.004181 
	C414.504517,274.004578 416.050812,272.671143 419.529022,272.884888 
	C425.494720,273.251465 431.526093,273.333282 437.478760,272.873169 
	C442.008606,272.523010 444.507050,273.948639 445.920258,278.252289 
	C446.451447,279.869843 448.221710,281.080505 449.427063,282.476685 
	C449.826599,282.141388 450.226135,281.806122 450.625671,281.470856 
	C448.341705,276.518677 446.057709,271.566498 443.377991,265.969269 
M291.774323,277.832489 
	C285.340302,264.180023 278.906281,250.527527 272.018860,235.912964 
	C264.516357,251.959106 257.610138,266.729889 250.703918,281.500702 
	C251.281876,281.869965 251.859818,282.239258 252.437759,282.608551 
	C253.678711,280.748871 255.289230,279.031738 256.074158,276.996185 
	C257.256317,273.930542 258.889587,272.666962 262.342987,272.891388 
	C267.812897,273.246826 273.356842,273.365845 278.806244,272.878448 
	C284.167908,272.398926 287.695374,273.657593 289.115234,279.299866 
	C289.417725,280.502014 291.224274,281.325623 292.337891,282.323639 
	C292.638123,281.979340 292.938354,281.635040 293.238556,281.290741 
	C292.846222,280.382690 292.453888,279.474640 291.774323,277.832489 
M384.267303,239.948090 
	C388.119507,240.750946 391.971710,241.553818 396.720886,242.543610 
	C395.726715,241.184540 395.208160,239.665283 394.244629,239.290665 
	C388.246185,236.958542 382.058289,235.922791 375.715424,237.875793 
	C370.073975,239.612839 366.738983,243.509827 366.542206,248.416885 
	C366.334808,253.588623 368.910858,256.923645 375.261627,259.046173 
	C379.662781,260.517151 384.229675,261.484985 388.666199,262.859528 
	C392.573822,264.070160 395.726807,266.282501 395.502533,270.898315 
	C395.279419,275.490112 392.335449,278.131073 388.083099,279.148560 
	C385.697235,279.719452 383.082886,280.209686 380.720245,279.824249 
	C375.575714,278.985046 370.526428,277.561707 364.381470,276.131073 
	C365.378235,277.536102 365.793854,278.818512 366.600983,279.151306 
	C374.100281,282.243134 381.807922,284.176514 389.897461,281.711578 
	C395.210510,280.092621 398.562653,275.798248 398.776489,270.825531 
	C398.981995,266.047607 396.231750,262.472321 390.470398,260.268707 
	C388.618317,259.560333 386.640991,259.185272 384.735382,258.609894 
	C381.246002,257.556305 377.579651,256.860596 374.324799,255.307770 
	C368.244507,252.406952 367.925537,245.165924 373.863434,241.971375 
	C376.614624,240.491272 380.190765,240.544556 384.267303,239.948090 
M307.685394,247.572113 
	C307.684875,245.239441 307.860962,242.886917 307.602173,240.583252 
	C307.489105,239.576462 306.486206,238.669632 305.887390,237.717407 
	C305.439453,238.651443 304.616333,239.580154 304.602936,240.520370 
	C304.496124,248.016754 304.542633,255.515320 304.542389,263.013214 
	C304.542206,269.281342 304.542358,275.549438 304.542358,281.753357 
	C315.451569,281.753357 325.708191,281.753357 335.964844,281.753357 
	C336.084961,281.254547 336.205078,280.755768 336.325195,280.256958 
	C334.996307,279.857513 333.671783,279.130035 332.337830,279.112305 
	C324.227814,279.004639 316.115692,279.058594 307.685364,279.058594 
	C307.685364,268.495392 307.685364,258.523621 307.685394,247.572113 
M348.860596,274.423523 
	C348.860596,276.878571 348.860596,279.333618 348.860596,281.788666 
	C349.292419,281.952789 349.724274,282.116943 350.156097,282.281067 
	C350.740326,281.355682 351.825562,280.434540 351.833405,279.504272 
	C351.944641,266.351746 351.945404,253.197632 351.827454,240.045197 
	C351.819763,239.186142 350.629730,238.337662 349.989655,237.484268 
	C349.613281,237.687241 349.236938,237.890213 348.860596,238.093185 
	C348.860596,249.876617 348.860596,261.660065 348.860596,274.423523 
M302.527130,325.954987 
	C301.469208,323.550049 299.804535,321.829803 297.354645,323.873718 
	C296.171356,324.860962 295.385864,327.082123 295.540405,328.632996 
	C295.633667,329.569153 298.456696,331.266876 299.041412,330.919495 
	C300.567657,330.012726 301.537018,328.168518 302.527130,325.954987 
M208.014954,323.901215 
	C207.792755,323.749847 207.585449,323.558594 207.340820,323.467377 
	C207.247116,323.432465 206.946671,323.625153 206.945801,323.715973 
	C206.923431,326.100006 206.928040,328.484222 206.928040,330.868439 
	C208.977432,325.498688 210.791809,328.165619 212.601959,331.535034 
	C212.601959,328.306061 212.601959,325.901520 212.601959,322.849060 
	C210.328049,326.224945 210.328049,326.224945 208.014954,323.901215 
M283.539764,323.297241 
	C283.199890,325.802155 282.860046,328.307037 282.520203,330.811951 
	C284.916565,324.605347 286.975800,329.783783 288.715210,331.046783 
	C288.715210,328.220154 288.715210,325.864105 288.715210,323.450775 
	C286.923401,323.753815 285.962189,330.059814 283.539764,323.297241 
M236.751160,324.122589 
	C235.141144,323.721863 233.531143,323.321136 231.725372,322.871704 
	C231.725372,326.051849 231.725372,328.464264 231.725372,330.876709 
	C231.979889,330.900726 232.234390,330.924774 232.488907,330.948792 
	C232.859909,330.016296 233.230911,329.083801 233.892532,327.420837 
	C234.707581,329.191956 235.280121,330.436127 235.852676,331.680298 
	C236.147980,331.319580 236.443298,330.958862 236.738602,330.598145 
	C236.850677,328.708771 236.962753,326.819397 236.751160,324.122589 
M179.683273,330.183777 
	C178.881805,327.759216 178.080322,325.334625 177.278854,322.910065 
	C176.793381,322.976929 176.307907,323.043823 175.822449,323.110718 
	C174.919937,325.574005 174.017441,328.037292 173.242935,330.151245 
	C175.468979,330.351257 177.300323,330.515808 179.683273,330.183777 
z"/>
<path fill="#F2F4F4" opacity="1.000000" stroke="none" 
	d="
M193.713440,202.638214 
	C180.243484,211.236389 167.062775,219.615143 153.882080,227.993912 
	C153.383194,227.373322 152.884323,226.752747 152.385437,226.132172 
	C153.407791,224.989532 154.245895,223.568359 155.482849,222.750137 
	C162.697479,217.977814 169.947144,213.251816 177.314148,208.720123 
	C179.873032,207.146057 180.974472,205.369507 180.865707,202.293930 
	C180.631790,195.679443 180.793884,189.050949 180.793884,181.806946 
	C186.425385,181.806946 191.545929,181.641785 196.638489,181.945648 
	C197.662903,182.006775 199.243408,183.748566 199.415939,184.889603 
	C199.826538,187.605087 199.548233,190.424759 199.548233,194.263138 
	C202.721634,192.295578 205.077133,190.876434 207.391357,189.392929 
	C216.074768,183.826523 224.775269,178.285675 233.398148,172.626770 
	C235.546463,171.216919 237.241623,170.721176 239.642502,172.375458 
	C244.561615,175.764862 249.662720,181.085953 254.840149,181.266174 
	C259.689423,181.434967 264.651825,175.838303 269.751495,173.131287 
	C270.994812,172.471344 273.357025,172.593765 274.553192,173.365860 
	C299.570007,189.513885 324.492920,205.807404 349.434875,222.071442 
	C350.513245,222.774643 351.596863,223.469833 352.678040,224.168747 
	C352.283264,224.856659 351.888489,225.544556 351.493713,226.232468 
	C349.904846,225.803223 348.077789,225.741638 346.762817,224.889648 
	C326.520538,211.774445 306.345917,198.554916 286.153015,185.363449 
	C281.559875,182.362885 276.957306,179.376740 271.924438,176.101074 
	C267.798798,178.765396 263.513000,181.533173 258.831543,184.556427 
	C279.947021,198.208557 300.811218,211.698212 321.675415,225.187881 
	C321.281799,225.929016 320.888184,226.670166 320.494568,227.411316 
	C318.741028,226.683609 316.834381,226.196213 315.257385,225.191422 
	C297.581268,213.928726 279.967621,202.568039 262.311462,191.273880 
	C254.607193,186.345642 246.908997,181.399536 239.039948,176.745789 
	C237.799118,176.011963 235.277115,176.169708 234.001999,176.964828 
	C220.592377,185.326767 207.315948,193.902298 193.713440,202.638214 
M184.189987,186.948547 
	C184.189987,192.454849 184.189987,197.961151 184.189987,203.810196 
	C196.090439,197.888016 197.839554,194.745331 194.812866,184.831741 
	C191.407822,185.226898 187.884216,185.635834 184.189987,186.948547 
z"/>
<path fill="#C8CDD1" opacity="1.000000" stroke="none" 
	d="
M188.000092,301.247681 
	C243.637177,301.247742 298.774231,301.247742 353.911316,301.247742 
	C353.908447,301.868500 353.905609,302.489288 353.902740,303.110046 
	C285.965027,303.110046 218.027298,303.110046 150.089584,303.110046 
	C150.074890,302.489258 150.060211,301.868439 150.045517,301.247650 
	C162.530380,301.247650 175.015228,301.247650 188.000092,301.247681 
z"/>
<path fill="#EEF0F1" opacity="1.000000" stroke="none" 
	d="
M205.542908,256.043457 
	C205.542282,264.021973 205.600266,271.509125 205.471451,278.993103 
	C205.454163,279.998138 204.494461,280.986938 203.971146,281.983276 
	C203.506821,281.105316 202.642975,280.229584 202.638000,279.349030 
	C202.561050,265.708374 202.590637,252.067047 202.626755,238.425980 
	C202.627869,238.005676 202.964218,237.586258 203.390671,236.591919 
	C214.341232,249.421310 225.049316,261.966614 235.757401,274.511932 
	C236.098129,274.363068 236.438843,274.214203 236.779572,274.065338 
	C236.779572,262.039551 236.779572,250.013779 236.779572,236.571945 
	C238.428024,238.070007 239.676651,238.673660 239.681320,239.286789 
	C239.791000,253.661987 239.766281,268.038208 238.604797,282.806061 
	C227.927505,270.256134 217.250214,257.706177 205.542953,243.945633 
	C205.542953,248.780869 205.542953,252.165985 205.542908,256.043457 
z"/>
<path fill="#EDEFF0" opacity="1.000000" stroke="none" 
	d="
M144.501190,259.999329 
	C144.832230,240.336243 163.157272,232.554169 176.812286,239.290283 
	C186.494308,244.066513 191.055466,255.777451 187.804047,267.111115 
	C184.936569,277.106445 175.291641,283.716400 164.996857,282.741577 
	C153.461761,281.649292 145.939438,274.100769 144.731888,262.408356 
	C144.663437,261.745667 144.580109,261.084473 144.501190,259.999329 
M170.773666,240.171036 
	C169.446274,240.080170 168.119339,239.918396 166.791412,239.909714 
	C156.653564,239.843521 149.111954,246.514389 147.820618,256.655762 
	C146.387375,267.911560 151.874802,276.725220 161.901077,279.271271 
	C171.906708,281.812012 181.867722,276.322510 184.802902,266.650085 
	C188.342270,254.986694 182.970047,244.326019 170.773666,240.171036 
z"/>
<path fill="#F2F3F4" opacity="1.000000" stroke="none" 
	d="
M93.012909,252.008301 
	C93.012909,247.045242 93.012909,242.580429 93.012909,238.173416 
	C100.795204,238.173416 108.364235,237.303421 115.645645,238.379547 
	C126.276314,239.950684 132.682098,249.860443 132.070648,261.687439 
	C131.516922,272.398224 123.636482,280.981598 112.942734,281.796539 
	C106.527542,282.285431 100.044678,281.886322 93.012909,281.886322 
	C93.012909,271.988342 93.012909,262.247437 93.012909,252.008301 
M125.619324,248.080872 
	C117.833672,237.708603 106.744835,240.761444 96.267563,240.412277 
	C96.267563,253.473129 96.267563,266.059479 96.267563,279.098206 
	C100.425484,279.098206 104.386177,278.911194 108.324348,279.129852 
	C127.732979,280.207428 133.576630,260.141632 125.619324,248.080872 
z"/>
<path fill="#E8EAEB" opacity="1.000000" stroke="none" 
	d="
M443.575867,266.291809 
	C446.057709,271.566498 448.341705,276.518677 450.625671,281.470856 
	C450.226135,281.806122 449.826599,282.141388 449.427063,282.476685 
	C448.221710,281.080505 446.451447,279.869843 445.920258,278.252289 
	C444.507050,273.948639 442.008606,272.523010 437.478760,272.873169 
	C431.526093,273.333282 425.494720,273.251465 419.529022,272.884888 
	C416.050812,272.671143 414.504517,274.004578 413.315002,277.004181 
	C412.507629,279.040070 410.908020,280.761749 409.662720,282.623962 
	C409.084290,282.261261 408.505890,281.898529 407.927460,281.535797 
	C414.886047,266.674103 421.844635,251.812408 429.308411,235.871780 
	C434.324463,246.602066 438.851227,256.285675 443.575867,266.291809 
M418.822083,265.433319 
	C418.168854,266.855499 417.515625,268.277679 416.777496,269.884705 
	C425.482574,269.884705 433.494720,269.884705 441.933746,269.884705 
	C437.692322,260.665405 433.675293,251.933945 429.340454,242.511612 
	C425.750275,250.283478 422.419678,257.493378 418.822083,265.433319 
z"/>
<path fill="#E8EAEB" opacity="1.000000" stroke="none" 
	d="
M291.917938,278.199524 
	C292.453888,279.474640 292.846222,280.382690 293.238556,281.290741 
	C292.938354,281.635040 292.638123,281.979340 292.337891,282.323639 
	C291.224274,281.325623 289.417725,280.502014 289.115234,279.299866 
	C287.695374,273.657593 284.167908,272.398926 278.806244,272.878448 
	C273.356842,273.365845 267.812897,273.246826 262.342987,272.891388 
	C258.889587,272.666962 257.256317,273.930542 256.074158,276.996185 
	C255.289230,279.031738 253.678711,280.748871 252.437759,282.608551 
	C251.859818,282.239258 251.281876,281.869965 250.703918,281.500702 
	C257.610138,266.729889 264.516357,251.959106 272.018860,235.912964 
	C278.906281,250.527527 285.340302,264.180023 291.917938,278.199524 
M283.864655,269.924744 
	C280.189850,261.068970 276.515045,252.213211 272.272858,241.990158 
	C267.599945,252.220261 263.646179,260.876038 259.379913,270.215881 
	C267.807404,270.215881 275.412170,270.215881 283.864655,269.924744 
z"/>
<path fill="#EBECEE" opacity="1.000000" stroke="none" 
	d="
M383.830109,239.925385 
	C380.190765,240.544556 376.614624,240.491272 373.863434,241.971375 
	C367.925537,245.165924 368.244507,252.406952 374.324799,255.307770 
	C377.579651,256.860596 381.246002,257.556305 384.735382,258.609894 
	C386.640991,259.185272 388.618317,259.560333 390.470398,260.268707 
	C396.231750,262.472321 398.981995,266.047607 398.776489,270.825531 
	C398.562653,275.798248 395.210510,280.092621 389.897461,281.711578 
	C381.807922,284.176514 374.100281,282.243134 366.600983,279.151306 
	C365.793854,278.818512 365.378235,277.536102 364.381470,276.131073 
	C370.526428,277.561707 375.575714,278.985046 380.720245,279.824249 
	C383.082886,280.209686 385.697235,279.719452 388.083099,279.148560 
	C392.335449,278.131073 395.279419,275.490112 395.502533,270.898315 
	C395.726807,266.282501 392.573822,264.070160 388.666199,262.859528 
	C384.229675,261.484985 379.662781,260.517151 375.261627,259.046173 
	C368.910858,256.923645 366.334808,253.588623 366.542206,248.416885 
	C366.738983,243.509827 370.073975,239.612839 375.715424,237.875793 
	C382.058289,235.922791 388.246185,236.958542 394.244629,239.290665 
	C395.208160,239.665283 395.726715,241.184540 396.720886,242.543610 
	C391.971710,241.553818 388.119507,240.750946 383.830109,239.925385 
z"/>
<path fill="#E6E8EA" opacity="1.000000" stroke="none" 
	d="
M307.685364,248.061996 
	C307.685364,258.523621 307.685364,268.495392 307.685364,279.058594 
	C316.115692,279.058594 324.227814,279.004639 332.337830,279.112305 
	C333.671783,279.130035 334.996307,279.857513 336.325195,280.256958 
	C336.205078,280.755768 336.084961,281.254547 335.964844,281.753357 
	C325.708191,281.753357 315.451569,281.753357 304.542358,281.753357 
	C304.542358,275.549438 304.542206,269.281342 304.542389,263.013214 
	C304.542633,255.515320 304.496124,248.016754 304.602936,240.520370 
	C304.616333,239.580154 305.439453,238.651443 305.887390,237.717407 
	C306.486206,238.669632 307.489105,239.576462 307.602173,240.583252 
	C307.860962,242.886917 307.684875,245.239441 307.685364,248.061996 
z"/>
<path fill="#F0F1F2" opacity="1.000000" stroke="none" 
	d="
M348.860596,273.933502 
	C348.860596,261.660065 348.860596,249.876617 348.860596,238.093185 
	C349.236938,237.890213 349.613281,237.687241 349.989655,237.484268 
	C350.629730,238.337662 351.819763,239.186142 351.827454,240.045197 
	C351.945404,253.197632 351.944641,266.351746 351.833405,279.504272 
	C351.825562,280.434540 350.740326,281.355682 350.156097,282.281067 
	C349.724274,282.116943 349.292419,281.952789 348.860596,281.788666 
	C348.860596,279.333618 348.860596,276.878571 348.860596,273.933502 
z"/>
<path fill="#D0D5D8" opacity="1.000000" stroke="none" 
	d="
M302.627777,326.326569 
	C301.537018,328.168518 300.567657,330.012726 299.041412,330.919495 
	C298.456696,331.266876 295.633667,329.569153 295.540405,328.632996 
	C295.385864,327.082123 296.171356,324.860962 297.354645,323.873718 
	C299.804535,321.829803 301.469208,323.550049 302.627777,326.326569 
z"/>
<path fill="#D0D5D8" opacity="1.000000" stroke="none" 
	d="
M208.101196,324.272583 
	C210.328049,326.224945 210.328049,326.224945 212.601959,322.849060 
	C212.601959,325.901520 212.601959,328.306061 212.601959,331.535034 
	C210.791809,328.165619 208.977432,325.498688 206.928040,330.868439 
	C206.928040,328.484222 206.923431,326.100006 206.945801,323.715973 
	C206.946671,323.625153 207.247116,323.432465 207.340820,323.467377 
	C207.585449,323.558594 207.792755,323.749847 208.101196,324.272583 
z"/>
<path fill="#D0D5D8" opacity="1.000000" stroke="none" 
	d="
M283.774445,323.587250 
	C285.962189,330.059814 286.923401,323.753815 288.715210,323.450775 
	C288.715210,325.864105 288.715210,328.220154 288.715210,331.046783 
	C286.975800,329.783783 284.916565,324.605347 282.520203,330.811951 
	C282.860046,328.307037 283.199890,325.802155 283.774445,323.587250 
z"/>
<path fill="#D0D5D8" opacity="1.000000" stroke="none" 
	d="
M236.912994,324.526306 
	C236.962753,326.819397 236.850677,328.708771 236.738602,330.598145 
	C236.443298,330.958862 236.147980,331.319580 235.852676,331.680298 
	C235.280121,330.436127 234.707581,329.191956 233.892532,327.420837 
	C233.230911,329.083801 232.859909,330.016296 232.488907,330.948792 
	C232.234390,330.924774 231.979889,330.900726 231.725372,330.876709 
	C231.725372,328.464264 231.725372,326.051849 231.725372,322.871704 
	C233.531143,323.321136 235.141144,323.721863 236.912994,324.526306 
z"/>
<path fill="#C8CDD1" opacity="1.000000" stroke="none" 
	d="
M179.407471,330.432068 
	C177.300323,330.515808 175.468979,330.351257 173.242935,330.151245 
	C174.017441,328.037292 174.919937,325.574005 175.822449,323.110718 
	C176.307907,323.043823 176.793381,322.976929 177.278854,322.910065 
	C178.080322,325.334625 178.881805,327.759216 179.407471,330.432068 
z"/>
<path fill="#304350" opacity="1.000000" stroke="none" 
	d="
M184.275299,186.496658 
	C187.884216,185.635834 191.407822,185.226898 194.812866,184.831741 
	C197.839554,194.745331 196.090439,197.888016 184.189987,203.810196 
	C184.189987,197.961151 184.189987,192.454849 184.275299,186.496658 
z"/>
<path fill="#243946" opacity="1.000000" stroke="none" 
	d="
M171.174393,240.285919 
	C182.970047,244.326019 188.342270,254.986694 184.802902,266.650085 
	C181.867722,276.322510 171.906708,281.812012 161.901077,279.271271 
	C151.874802,276.725220 146.387375,267.911560 147.820618,256.655762 
	C149.111954,246.514389 156.653564,239.843521 166.791412,239.909714 
	C168.119339,239.918396 169.446274,240.080170 171.174393,240.285919 
z"/>
<path fill="#233846" opacity="1.000000" stroke="none" 
	d="
M125.822647,248.396667 
	C133.576630,260.141632 127.732979,280.207428 108.324348,279.129852 
	C104.386177,278.911194 100.425484,279.098206 96.267563,279.098206 
	C96.267563,266.059479 96.267563,253.473129 96.267563,240.412277 
	C106.744835,240.761444 117.833672,237.708603 125.822647,248.396667 
z"/>
<path fill="#253A48" opacity="1.000000" stroke="none" 
	d="
M418.955597,265.068298 
	C422.419678,257.493378 425.750275,250.283478 429.340454,242.511612 
	C433.675293,251.933945 437.692322,260.665405 441.933746,269.884705 
	C433.494720,269.884705 425.482574,269.884705 416.777496,269.884705 
	C417.515625,268.277679 418.168854,266.855499 418.955597,265.068298 
z"/>
<path fill="#253A48" opacity="1.000000" stroke="none" 
	d="
M283.440796,270.070312 
	C275.412170,270.215881 267.807404,270.215881 259.379913,270.215881 
	C263.646179,260.876038 267.599945,252.220261 272.272858,241.990158 
	C276.515045,252.213211 280.189850,261.068970 283.440796,270.070312 
z"/>
</svg>