<svg version="1.1" id="Layer_1" xmlns="http://www.w3.org/2000/svg" xmlns:xlink="http://www.w3.org/1999/xlink" x="0px" y="0px"
	 width="100%" viewBox="0 0 500 500" enable-background="new 0 0 500 500" xml:space="preserve">
<path fill="#213644" opacity="1.000000" stroke="none" 
	d="
M256.000000,501.000000 
	C170.666687,501.000000 85.833374,501.000000 1.000046,501.000000 
	C1.000030,334.333405 1.000030,167.666794 1.000015,1.000135 
	C167.666565,1.000090 334.333130,1.000090 500.999756,1.000045 
	C500.999847,167.666519 500.999847,334.333038 500.999939,500.999786 
	C419.500000,501.000000 338.000000,501.000000 256.000000,501.000000 
M277.616608,201.792587 
	C289.932037,209.697235 302.224457,217.638260 314.593811,225.457565 
	C316.036163,226.369324 317.903778,226.608353 319.574219,227.159271 
	C319.854614,226.479065 320.134979,225.798843 320.415375,225.118637 
	C299.600433,211.676910 278.785492,198.235184 257.622711,184.568832 
	C262.389069,181.509689 266.667328,178.763824 270.764404,176.134216 
	C271.791565,176.766785 272.364380,177.101883 272.919586,177.463989 
	C296.878448,193.090256 320.822296,208.739670 344.824005,224.299820 
	C346.395233,225.318420 348.408020,225.655792 350.215424,226.310043 
	C350.480896,225.733353 350.746368,225.156647 351.011841,224.579956 
	C349.815338,223.561417 348.713135,222.398575 347.408264,221.545868 
	C326.386963,207.809235 305.350647,194.095520 284.289948,180.419327 
	C279.847565,177.534561 275.304016,172.655716 270.789734,172.635895 
	C266.270844,172.616028 261.628082,177.378159 257.241730,180.343170 
	C255.003647,181.856033 253.374725,182.138611 251.048141,180.477188 
	C247.130173,177.679337 242.793594,175.465256 238.894608,172.644196 
	C236.450485,170.875778 234.655533,170.997284 232.224182,172.613327 
	C223.637543,178.320648 214.916275,183.825699 206.234024,189.388672 
	C203.794250,190.951889 201.313263,192.450806 197.994781,194.510849 
	C197.994781,189.663895 197.994781,185.914520 197.994781,181.795013 
	C193.167160,181.795013 188.841248,182.047531 184.559555,181.720642 
	C180.648880,181.422058 179.163269,182.684708 179.368347,186.688522 
	C179.640701,192.005844 179.736374,197.373489 179.283569,202.666077 
	C179.106567,204.735016 177.723831,207.354736 176.051483,208.527695 
	C169.112946,213.394272 161.832870,217.771683 154.730927,222.409470 
	C153.339294,223.318253 152.181961,224.585800 150.916565,225.687881 
	C151.176132,226.214127 151.435684,226.740372 151.695251,227.266617 
	C153.352234,226.728653 155.202438,226.499298 156.634720,225.602463 
	C165.654053,219.955032 174.577866,214.155167 183.538269,208.413498 
	C200.878525,197.302170 218.222092,186.196045 235.508484,175.123489 
	C249.501251,183.964111 263.267883,192.661835 277.616608,201.792587 
M231.259094,269.309021 
	C222.051315,258.481812 212.843536,247.654587 202.916336,235.981415 
	C202.916336,252.129547 202.916336,266.963898 202.916336,281.798218 
	C203.419617,281.940552 203.922913,282.082855 204.426193,282.225189 
	C204.798309,280.900665 205.480637,279.579071 205.493057,278.251190 
	C205.584900,268.427917 205.527618,258.603363 205.564514,248.779373 
	C205.568909,247.612030 205.858704,246.445770 206.105652,244.616425 
	C217.321716,257.784546 227.987000,270.306030 238.652298,282.827515 
	C239.786652,268.120758 239.814621,254.016388 239.715958,239.912903 
	C239.710144,239.081421 238.684540,238.257065 238.133499,237.429398 
	C237.632706,237.592407 237.131927,237.755417 236.631149,237.918427 
	C236.631149,249.978790 236.631149,262.039154 236.631149,275.360809 
	C234.358154,272.795013 233.058807,271.328339 231.259094,269.309021 
M177.004898,239.367996 
	C175.932480,238.928314 174.887192,238.399887 173.783493,238.062515 
	C160.608795,234.035416 147.692490,241.339493 145.052063,254.285065 
	C142.099197,268.762421 150.263672,280.838959 164.221481,282.639648 
	C174.350311,283.946411 183.886292,278.063568 187.321854,268.388794 
	C191.285675,257.226379 187.528641,246.125778 177.004898,239.367996 
M132.156937,259.605042 
	C131.537354,248.253448 125.435860,239.680298 115.524033,238.336044 
	C108.232193,237.347107 100.698410,238.142029 93.380234,238.142029 
	C93.380234,252.791412 93.380234,267.336853 93.380234,282.026215 
	C99.065781,282.026215 104.385460,282.089264 109.703186,282.013794 
	C123.025261,281.824799 131.348068,273.780975 132.156937,259.605042 
M262.262054,256.658264 
	C258.422546,264.921753 254.583038,273.185242 250.743530,281.448730 
	C251.133545,281.796539 251.523544,282.144379 251.913559,282.492188 
	C253.078384,281.230164 254.839157,280.152863 255.298111,278.672058 
	C256.771790,273.917419 259.564667,272.376312 264.505920,272.867981 
	C269.781342,273.392914 275.177643,273.323425 280.468384,272.881348 
	C284.833313,272.516602 287.227386,273.914337 288.569336,278.077057 
	C289.106049,279.742004 290.826111,281.025452 292.007538,282.482574 
	C292.476807,282.129547 292.946075,281.776550 293.415375,281.423523 
	C286.448944,266.583710 279.482544,251.743881 272.041748,235.893555 
	C268.527374,243.424988 265.590912,249.717865 262.262054,256.658264 
M418.162018,259.529022 
	C414.766205,266.855682 411.370392,274.182343 407.695312,282.111511 
	C413.956940,281.689606 412.530060,275.704163 416.042603,272.986237 
	C422.447723,272.986237 429.614380,273.369812 436.716370,272.857269 
	C441.819519,272.488953 444.705048,274.025238 446.197357,278.937561 
	C446.607788,280.288635 448.455872,281.202972 449.644257,282.317719 
	C449.965332,281.973083 450.286407,281.628448 450.607483,281.283813 
	C443.667877,266.498383 436.728241,251.712921 429.310181,235.908081 
	C425.402344,244.252731 421.976105,251.568985 418.162018,259.529022 
M392.592194,238.669220 
	C386.258026,236.633698 379.891754,235.837952 373.603607,238.704086 
	C367.105408,241.665955 364.087189,248.962784 368.049286,253.806595 
	C370.372406,256.646729 374.382233,258.366760 377.938690,259.866394 
	C381.577881,261.400909 385.643463,261.888885 389.423340,263.135345 
	C392.972931,264.305817 395.634277,266.609924 395.530640,270.713623 
	C395.426239,274.846710 393.035034,277.912781 389.198425,278.731781 
	C385.238403,279.577209 380.968781,279.758545 376.943878,279.290558 
	C373.001495,278.832153 369.196777,277.189972 363.866272,275.641754 
	C365.284149,277.591980 365.685028,278.776703 366.446228,279.092285 
	C373.943542,282.200378 381.645752,284.157806 389.752197,281.757843 
	C395.096710,280.175537 398.471222,275.962830 398.764221,270.969635 
	C399.045837,266.170288 396.359772,262.509247 390.586243,260.347931 
	C387.799805,259.304779 384.809509,258.820099 381.966644,257.910248 
	C378.974030,256.952484 375.828949,256.169281 373.142151,254.627380 
	C368.991272,252.245209 368.283630,246.738586 371.881927,243.605469 
	C373.985565,241.773758 377.111847,240.155930 379.786346,240.142944 
	C385.138397,240.116943 390.496155,241.260086 396.939056,242.054626 
	C395.490479,240.790436 394.400574,239.839249 392.592194,238.669220 
M304.542236,265.496399 
	C304.542236,270.936554 304.542236,276.376740 304.542236,281.764587 
	C315.438599,281.764587 325.700165,281.764587 335.961700,281.764587 
	C336.084381,281.266602 336.207092,280.768646 336.329773,280.270660 
	C335.007172,279.866608 333.688995,279.130615 332.361206,279.112823 
	C324.250519,279.004150 316.137665,279.058502 307.685150,279.058502 
	C307.685150,266.017365 307.730988,253.550781 307.607483,241.085892 
	C307.596313,239.957489 306.494598,238.839905 305.899353,237.717300 
	C305.447113,238.813873 304.618927,239.904999 304.602936,241.007874 
	C304.489502,248.836380 304.542389,256.667267 304.542236,265.496399 
M348.860474,270.480377 
	C348.860474,274.264954 348.860474,278.049500 348.860474,281.834076 
	C349.305542,281.989777 349.750610,282.145508 350.195679,282.301208 
	C350.766937,281.352386 351.827667,280.407593 351.835602,279.454102 
	C351.944916,266.303314 351.945496,253.150955 351.825012,240.000366 
	C351.817291,239.157822 350.597809,238.326401 349.942017,237.489807 
	C349.581512,237.701767 349.220978,237.913742 348.860474,238.125702 
	C348.860474,248.579483 348.860474,259.033264 348.860474,270.480377 
z"/>
<path fill="#F1F3F3" opacity="1.000000" stroke="none" 
	d="
M277.325562,201.576080 
	C263.267883,192.661835 249.501251,183.964111 235.508484,175.123489 
	C218.222092,186.196045 200.878525,197.302170 183.538269,208.413498 
	C174.577866,214.155167 165.654053,219.955032 156.634720,225.602463 
	C155.202438,226.499298 153.352234,226.728653 151.695251,227.266617 
	C151.435684,226.740372 151.176132,226.214127 150.916565,225.687881 
	C152.181961,224.585800 153.339294,223.318253 154.730927,222.409470 
	C161.832870,217.771683 169.112946,213.394272 176.051483,208.527695 
	C177.723831,207.354736 179.106567,204.735016 179.283569,202.666077 
	C179.736374,197.373489 179.640701,192.005844 179.368347,186.688522 
	C179.163269,182.684708 180.648880,181.422058 184.559555,181.720642 
	C188.841248,182.047531 193.167160,181.795013 197.994781,181.795013 
	C197.994781,185.914520 197.994781,189.663895 197.994781,194.510849 
	C201.313263,192.450806 203.794250,190.951889 206.234024,189.388672 
	C214.916275,183.825699 223.637543,178.320648 232.224182,172.613327 
	C234.655533,170.997284 236.450485,170.875778 238.894608,172.644196 
	C242.793594,175.465256 247.130173,177.679337 251.048141,180.477188 
	C253.374725,182.138611 255.003647,181.856033 257.241730,180.343170 
	C261.628082,177.378159 266.270844,172.616028 270.789734,172.635895 
	C275.304016,172.655716 279.847565,177.534561 284.289948,180.419327 
	C305.350647,194.095520 326.386963,207.809235 347.408264,221.545868 
	C348.713135,222.398575 349.815338,223.561417 351.011841,224.579956 
	C350.746368,225.156647 350.480896,225.733353 350.215424,226.310043 
	C348.408020,225.655792 346.395233,225.318420 344.824005,224.299820 
	C320.822296,208.739670 296.878448,193.090256 272.919586,177.463989 
	C272.364380,177.101883 271.791565,176.766785 270.764404,176.134216 
	C266.667328,178.763824 262.389069,181.509689 257.622711,184.568832 
	C278.785492,198.235184 299.600433,211.676910 320.415375,225.118637 
	C320.134979,225.798843 319.854614,226.479065 319.574219,227.159271 
	C317.903778,226.608353 316.036163,226.369324 314.593811,225.457565 
	C302.224457,217.638260 289.932037,209.697235 277.325562,201.576080 
M183.308197,202.995712 
	C193.279968,200.716766 196.644318,195.234863 194.094604,185.550201 
	C190.527573,185.550201 186.991211,185.550201 183.181931,185.550201 
	C183.181931,191.369751 183.181931,196.806747 183.308197,202.995712 
z"/>
<path fill="#EEF0F1" opacity="1.000000" stroke="none" 
	d="
M231.509277,269.585327 
	C233.058807,271.328339 234.358154,272.795013 236.631149,275.360809 
	C236.631149,262.039154 236.631149,249.978790 236.631149,237.918427 
	C237.131927,237.755417 237.632706,237.592407 238.133499,237.429398 
	C238.684540,238.257065 239.710144,239.081421 239.715958,239.912903 
	C239.814621,254.016388 239.786652,268.120758 238.652298,282.827515 
	C227.987000,270.306030 217.321716,257.784546 206.105652,244.616425 
	C205.858704,246.445770 205.568909,247.612030 205.564514,248.779373 
	C205.527618,258.603363 205.584900,268.427917 205.493057,278.251190 
	C205.480637,279.579071 204.798309,280.900665 204.426193,282.225189 
	C203.922913,282.082855 203.419617,281.940552 202.916336,281.798218 
	C202.916336,266.963898 202.916336,252.129547 202.916336,235.981415 
	C212.843536,247.654587 222.051315,258.481812 231.509277,269.585327 
z"/>
<path fill="#EDEFF0" opacity="1.000000" stroke="none" 
	d="
M177.321411,239.572327 
	C187.528641,246.125778 191.285675,257.226379 187.321854,268.388794 
	C183.886292,278.063568 174.350311,283.946411 164.221481,282.639648 
	C150.263672,280.838959 142.099197,268.762421 145.052063,254.285065 
	C147.692490,241.339493 160.608795,234.035416 173.783493,238.062515 
	C174.887192,238.399887 175.932480,238.928314 177.321411,239.572327 
M155.930878,276.791565 
	C157.112198,277.400391 158.248489,278.126801 159.482086,278.599060 
	C167.653442,281.727081 176.896164,279.147278 181.876602,272.403839 
	C187.177002,265.227203 187.115051,254.230423 181.734436,247.163589 
	C176.599854,240.419846 167.400375,237.962692 159.278152,241.165573 
	C145.621429,246.550934 143.435394,266.019165 155.930878,276.791565 
z"/>
<path fill="#F2F3F4" opacity="1.000000" stroke="none" 
	d="
M132.150177,260.006104 
	C131.348068,273.780975 123.025261,281.824799 109.703186,282.013794 
	C104.385460,282.089264 99.065781,282.026215 93.380234,282.026215 
	C93.380234,267.336853 93.380234,252.791412 93.380234,238.142029 
	C100.698410,238.142029 108.232193,237.347107 115.524033,238.336044 
	C125.435860,239.680298 131.537354,248.253448 132.150177,260.006104 
M97.481094,240.357788 
	C97.013252,240.905334 96.140564,241.450317 96.137070,242.000809 
	C96.059372,254.242416 96.077568,266.484650 96.077568,279.013275 
	C101.663040,279.013275 106.785660,279.211395 111.887535,278.970398 
	C121.347466,278.523468 128.475327,271.154999 129.032013,261.561371 
	C129.661972,250.704315 123.700226,242.265015 113.886215,240.913589 
	C108.820618,240.216034 103.621765,240.486069 97.481094,240.357788 
z"/>
<path fill="#E8EAEB" opacity="1.000000" stroke="none" 
	d="
M262.458252,256.334503 
	C265.590912,249.717865 268.527374,243.424988 272.041748,235.893555 
	C279.482544,251.743881 286.448944,266.583710 293.415375,281.423523 
	C292.946075,281.776550 292.476807,282.129547 292.007538,282.482574 
	C290.826111,281.025452 289.106049,279.742004 288.569336,278.077057 
	C287.227386,273.914337 284.833313,272.516602 280.468384,272.881348 
	C275.177643,273.323425 269.781342,273.392914 264.505920,272.867981 
	C259.564667,272.376312 256.771790,273.917419 255.298111,278.672058 
	C254.839157,280.152863 253.078384,281.230164 251.913559,282.492188 
	C251.523544,282.144379 251.133545,281.796539 250.743530,281.448730 
	C254.583038,273.185242 258.422546,264.921753 262.458252,256.334503 
M262.915070,262.493988 
	C261.829224,264.840881 260.743378,267.187775 259.506897,269.860229 
	C268.156281,269.860229 276.090759,269.860229 284.673340,269.860229 
	C280.445129,260.684540 276.490204,252.101913 272.087463,242.547546 
	C268.815125,249.597717 265.990967,255.682343 262.915070,262.493988 
z"/>
<path fill="#E8EAEB" opacity="1.000000" stroke="none" 
	d="
M418.355957,259.207153 
	C421.976105,251.568985 425.402344,244.252731 429.310181,235.908081 
	C436.728241,251.712921 443.667877,266.498383 450.607483,281.283813 
	C450.286407,281.628448 449.965332,281.973083 449.644257,282.317719 
	C448.455872,281.202972 446.607788,280.288635 446.197357,278.937561 
	C444.705048,274.025238 441.819519,272.488953 436.716370,272.857269 
	C429.614380,273.369812 422.447723,272.986237 416.042603,272.986237 
	C412.530060,275.704163 413.956940,281.689606 407.695312,282.111511 
	C411.370392,274.182343 414.766205,266.855682 418.355957,259.207153 
M433.323608,251.220230 
	C432.092438,248.560318 430.861267,245.900391 429.290497,242.506744 
	C424.942963,252.016846 420.902130,260.855957 416.749329,269.940063 
	C425.399017,269.940063 433.438690,269.940063 441.917969,269.940063 
	C439.045837,263.621216 436.374908,257.744934 433.323608,251.220230 
z"/>
<path fill="#EBECEE" opacity="1.000000" stroke="none" 
	d="
M392.951416,238.778656 
	C394.400574,239.839249 395.490479,240.790436 396.939056,242.054626 
	C390.496155,241.260086 385.138397,240.116943 379.786346,240.142944 
	C377.111847,240.155930 373.985565,241.773758 371.881927,243.605469 
	C368.283630,246.738586 368.991272,252.245209 373.142151,254.627380 
	C375.828949,256.169281 378.974030,256.952484 381.966644,257.910248 
	C384.809509,258.820099 387.799805,259.304779 390.586243,260.347931 
	C396.359772,262.509247 399.045837,266.170288 398.764221,270.969635 
	C398.471222,275.962830 395.096710,280.175537 389.752197,281.757843 
	C381.645752,284.157806 373.943542,282.200378 366.446228,279.092285 
	C365.685028,278.776703 365.284149,277.591980 363.866272,275.641754 
	C369.196777,277.189972 373.001495,278.832153 376.943878,279.290558 
	C380.968781,279.758545 385.238403,279.577209 389.198425,278.731781 
	C393.035034,277.912781 395.426239,274.846710 395.530640,270.713623 
	C395.634277,266.609924 392.972931,264.305817 389.423340,263.135345 
	C385.643463,261.888885 381.577881,261.400909 377.938690,259.866394 
	C374.382233,258.366760 370.372406,256.646729 368.049286,253.806595 
	C364.087189,248.962784 367.105408,241.665955 373.603607,238.704086 
	C379.891754,235.837952 386.258026,236.633698 392.951416,238.778656 
z"/>
<path fill="#E6E8EA" opacity="1.000000" stroke="none" 
	d="
M304.542236,264.996887 
	C304.542389,256.667267 304.489502,248.836380 304.602936,241.007874 
	C304.618927,239.904999 305.447113,238.813873 305.899353,237.717285 
	C306.494598,238.839905 307.596313,239.957489 307.607483,241.085892 
	C307.730988,253.550781 307.685150,266.017365 307.685150,279.058502 
	C316.137665,279.058502 324.250519,279.004150 332.361206,279.112823 
	C333.688995,279.130615 335.007172,279.866608 336.329773,280.270660 
	C336.207092,280.768646 336.084381,281.266602 335.961700,281.764587 
	C325.700165,281.764587 315.438599,281.764587 304.542236,281.764587 
	C304.542236,276.376740 304.542236,270.936554 304.542236,264.996887 
z"/>
<path fill="#F0F1F2" opacity="1.000000" stroke="none" 
	d="
M348.860474,269.983704 
	C348.860474,259.033264 348.860474,248.579483 348.860474,238.125702 
	C349.220978,237.913742 349.581512,237.701767 349.942017,237.489807 
	C350.597809,238.326401 351.817291,239.157822 351.825012,240.000366 
	C351.945496,253.150955 351.944916,266.303314 351.835602,279.454102 
	C351.827667,280.407593 350.766937,281.352386 350.195679,282.301208 
	C349.750610,282.145508 349.305542,281.989777 348.860474,281.834076 
	C348.860474,278.049500 348.860474,274.264954 348.860474,269.983704 
z"/>
<path fill="#304451" opacity="1.000000" stroke="none" 
	d="
M183.245056,202.619736 
	C183.181931,196.806747 183.181931,191.369751 183.181931,185.550201 
	C186.991211,185.550201 190.527573,185.550201 194.094604,185.550201 
	C196.644318,195.234863 193.279968,200.716766 183.245056,202.619736 
z"/>
<path fill="#243946" opacity="1.000000" stroke="none" 
	d="
M155.629410,276.568329 
	C143.435394,266.019165 145.621429,246.550934 159.278152,241.165573 
	C167.400375,237.962692 176.599854,240.419846 181.734436,247.163589 
	C187.115051,254.230423 187.177002,265.227203 181.876602,272.403839 
	C176.896164,279.147278 167.653442,281.727081 159.482086,278.599060 
	C158.248489,278.126801 157.112198,277.400391 155.629410,276.568329 
z"/>
<path fill="#233846" opacity="1.000000" stroke="none" 
	d="
M97.982109,240.338348 
	C103.621765,240.486069 108.820618,240.216034 113.886215,240.913589 
	C123.700226,242.265015 129.661972,250.704315 129.032013,261.561371 
	C128.475327,271.154999 121.347466,278.523468 111.887535,278.970398 
	C106.785660,279.211395 101.663040,279.013275 96.077568,279.013275 
	C96.077568,266.484650 96.059372,254.242416 96.137070,242.000809 
	C96.140564,241.450317 97.013252,240.905334 97.982109,240.338348 
z"/>
<path fill="#253A48" opacity="1.000000" stroke="none" 
	d="
M263.040924,262.130493 
	C265.990967,255.682343 268.815125,249.597717 272.087463,242.547546 
	C276.490204,252.101913 280.445129,260.684540 284.673340,269.860229 
	C276.090759,269.860229 268.156281,269.860229 259.506897,269.860229 
	C260.743378,267.187775 261.829224,264.840881 263.040924,262.130493 
z"/>
<path fill="#253A48" opacity="1.000000" stroke="none" 
	d="
M433.513794,251.544449 
	C436.374908,257.744934 439.045837,263.621216 441.917969,269.940063 
	C433.438690,269.940063 425.399017,269.940063 416.749329,269.940063 
	C420.902130,260.855957 424.942963,252.016846 429.290497,242.506744 
	C430.861267,245.900391 432.092438,248.560318 433.513794,251.544449 
z"/>
</svg>